<svg xmlns="http://www.w3.org/2000/svg" width="900" height="320" viewBox="0 0 900 320"><defs></defs><style>.title{font:800 80px -apple-system,BlinkMacSystemFont,'Segoe UI',Helvetica,Arial,sans-serif;letter-spacing:-2px}.sub{font:700 24px -apple-system,BlinkMacSystemFont,'Segoe UI',Helvetica,Arial,sans-serif}.sub2{font:400 16px -apple-system,BlinkMacSystemFont,'Segoe UI',Helvetica,Arial,sans-serif}.chip{font:500 12.5px ui-monospace,SFMono-Regular,Menlo,Consolas,monospace;fill:#ececec}.mono-s{font:500 12px ui-monospace,SFMono-Regular,Menlo,Consolas,monospace;letter-spacing:3px}</style><rect width="900" height="320" fill="#0d0d0d"/>
<svg x="40" y="60" width="190" height="190" viewBox="-10 -20 276 276"><g transform="translate(0,36)"><circle cx="82" cy="136" r="49" fill="#161616"/><circle cx="122" cy="104" r="47" fill="#161616"/><circle cx="170" cy="112" r="45" fill="#161616"/><circle cx="192" cy="156" r="43" fill="#161616"/><circle cx="150" cy="176" r="49" fill="#161616"/><circle cx="104" cy="178" r="45" fill="#161616"/><circle cx="82" cy="136" r="44" fill="#d8d8d8"/><circle cx="122" cy="104" r="42" fill="#d8d8d8"/><circle cx="170" cy="112" r="40" fill="#d8d8d8"/><circle cx="192" cy="156" r="38" fill="#d8d8d8"/><circle cx="150" cy="176" r="44" fill="#d8d8d8"/><circle cx="104" cy="178" r="40" fill="#d8d8d8"/><g fill="none" stroke="#8a8a8a" stroke-width="5" stroke-linecap="round"><path d="M64,140 q22,-26 46,-4"/><path d="M118,138 q24,-22 44,2"/><path d="M92,176 q20,-18 40,0"/><path d="M150,168 q22,-18 42,-2"/><path d="M134,96 q8,30 4,62"/><path d="M80,108 q16,-12 30,-2"/></g></g>
<g transform="translate(124,116) rotate(38) scale(1.3)">
<rect x="-7" y="-120" width="14" height="92" rx="5" fill="#7a7a7a"/><rect x="-7" y="-120" width="5" height="92" rx="2.5" fill="#9a9a9a"/>
<rect x="-38" y="-34" width="76" height="34" rx="6" fill="#4a4a4a" stroke="#161616" stroke-width="5"/><rect x="-34" y="-30" width="68" height="8" rx="3" fill="#6c6c6c"/>
</g>
<g stroke="#ff7a1a" stroke-width="6" stroke-linecap="round"><path d="M124,116 l-34,18"/><path d="M124,116 l-8,36"/><path d="M124,116 l26,28"/><path d="M124,116 l44,2"/><path d="M124,116 l-44,-6"/></g><circle cx="124" cy="116" r="9" fill="#ffd2a0"/><circle cx="124" cy="116" r="5" fill="#fff"/></svg>
<text x="262" y="92" class="mono-s" fill="#ff7a1a">COGI ERGO SUM</text>
<text x="256" y="172" class="title" fill="#ececec">cogiforge</text>
<text x="262" y="208" class="sub" fill="#ececec">A second brain that learns how you work.</text>
<text x="262" y="234" class="sub2" fill="#8a8a8a">Obsidian + Claude Code. It writes nothing about you that you did not say.</text><rect x="262" y="262" width="119.19999999999999" height="30" rx="15" fill="none" stroke="#3a3a3a"/><text x="321.6" y="282" text-anchor="middle" class="chip">alpha · v0.x</text><rect x="391.2" y="262" width="50.8" height="30" rx="15" fill="none" stroke="#3a3a3a"/><text x="416.59999999999997" y="282" text-anchor="middle" class="chip">MIT</text><rect x="452.0" y="262" width="339.59999999999997" height="30" rx="15" fill="none" stroke="#3a3a3a"/><text x="621.8" y="282" text-anchor="middle" class="chip">191 tests, 105/105 mutants killed (03/10)</text></svg>